HIERARCHY
ROOT Hips
{
    OFFSET 0.0 0.0 0.0
    CHANNELS 6 Xposition Yposition Zposition Zrotation Xrotation Yrotation
    JOINT LeftUpLeg
    {
        OFFSET 15.750334854661881 0.0 0.0
        CHANNELS 3 Zrotation Xrotation Yrotation
        JOINT LeftLeg
        {
            OFFSET 0.0 0.0 -58.29644637139788
            CHANNELS 3 Zrotation Xrotation Yrotation
            JOINT LeftFoot
            {
                OFFSET 0.0 0.0 -41.805230515241774
                CHANNELS 3 Zrotation Xrotation Yrotation
                JOINT LeftToeBase
                {
                    OFFSET 0.0 -13.727054775281008 0.0
                    CHANNELS 3 Zrotation Xrotation Yrotation
                    End Site
                    {
                        OFFSET 0 0 0
                    }
                }
            }
        }
    }
    JOINT RightUpLeg
    {
        OFFSET -15.750334854661881 0.0 0.0
        CHANNELS 3 Zrotation Xrotation Yrotation
        JOINT RightLeg
        {
            OFFSET 0.0 0.0 -58.29644637139788
            CHANNELS 3 Zrotation Xrotation Yrotation
            JOINT RightFoot
            {
                OFFSET 0.0 0.0 -41.805230515241774
                CHANNELS 3 Zrotation Xrotation Yrotation
                JOINT RightToeBase
                {
                    OFFSET 0.0 -13.727054775281008 0.0
                    CHANNELS 3 Zrotation Xrotation Yrotation
                    End Site
                    {
                        OFFSET 0 0 0
                    }
                }
            }
        }
    }
    JOINT Spine
    {
        OFFSET 0.0 0.0 11.871116600577771
        CHANNELS 3 Zrotation Xrotation Yrotation
        JOINT Spine1
        {
            OFFSET 0.0 0.0 11.506810270961148
            CHANNELS 3 Zrotation Xrotation Yrotation
            JOINT Spine2
            {
                OFFSET 0.0 0.0 11.506810270961148
                CHANNELS 3 Zrotation Xrotation Yrotation
                JOINT Spine3
                {
                    OFFSET 0.0 0.0 11.506810270961143
                    CHANNELS 3 Zrotation Xrotation Yrotation
                    JOINT Spine4
                    {
                        OFFSET 0.0 0.0 11.506810270961152
                        CHANNELS 3 Zrotation Xrotation Yrotation
                        JOINT RightShoulder
                        {
                            OFFSET -25.317765758917815 0.0 0.0
                            CHANNELS 3 Zrotation Xrotation Yrotation
                            JOINT RightArm
                            {
                                OFFSET -36.97224116394695 0.0 0.0
                                CHANNELS 3 Zrotation Xrotation Yrotation
                                JOINT RightForeArm
                                {
                                    OFFSET -33.54746299510779 0.0 0.0
                                    CHANNELS 3 Zrotation Xrotation Yrotation
                                    JOINT RightHand
                                    {
                                        OFFSET -12.437139123643384 0.0 0.0
                                        CHANNELS 3 Zrotation Xrotation Yrotation
                                        End Site
                                        {
                                            OFFSET 0 0 0
                                        }
                                    }
                                }
                            }
                        }
                        JOINT LeftShoulder
                        {
                            OFFSET 25.317765758917815 0.0 0.0
                            CHANNELS 3 Zrotation Xrotation Yrotation
                            JOINT LeftArm
                            {
                                OFFSET 36.97224116394695 0.0 0.0
                                CHANNELS 3 Zrotation Xrotation Yrotation
                                JOINT LeftForeArm
                                {
                                    OFFSET 33.54746299510779 0.0 0.0
                                    CHANNELS 3 Zrotation Xrotation Yrotation
                                    JOINT LeftHand
                                    {
                                        OFFSET 12.437139123643384 0.0 0.0
                                        CHANNELS 3 Zrotation Xrotation Yrotation
                                        End Site
                                        {
                                            OFFSET 0 0 0
                                        }
                                    }
                                }
                            }
                        }
                        JOINT Neck
                        {
                            OFFSET 0.0 0.0 11.506810249385502
                            CHANNELS 3 Zrotation Xrotation Yrotation
                            JOINT Head
                            {
                                OFFSET 0.0 0.0 26.592541984949452
                                CHANNELS 3 Zrotation Xrotation Yrotation
                                End Site
                                {
                                    OFFSET 0 0 0
                                }
                            }
                        }
                    }
                }
            }
        }
    }
}
MOTION
Frames: 5
Frame Time: 0.03333333333333333
51.483505654335026 0.5480420814827085 401.82803421020515 117.48854471285554 -79.63014362019892 116.01492450777758 -5.289575185121848 8.469960927136086 -10.398029765545411 -0.344763499721121 0.23371947009867955 -8.303342777031743 -72.02710498128421 3.1805546814635168e-15 63.30433941112065 0.0 0.0 0.0 3.8231779387467713 7.153974643318677 5.5386938182988805 -17.844536029338194 -14.249657944158947 -22.402501852862997 106.6729253363508 -9.54166404439055e-15 -82.10791304384891 0.0 0.0 0.0 -0.012139023304216264 1.3982708441581608 -0.9103316909961078 0.0 0.0 0.0 0.0 0.0 0.0 0.0 0.0 0.0 0.0 0.0 0.0 -171.4680330123204 -11.009773179365697 175.27397282244377 46.38187369333128 1.6445015798403347e-15 -7.04526382421685e-16 180.0 72.31563353564081 -180.0 -7.951386703658792e-16 0.0 0.0 -138.57834594376493 6.041061886633584 151.44110531584832 -116.76934469163547 -1.7084754157942147e-14 8.649483702926151e-15 -180.0 -74.77384357521193 -179.99999999999997 0.0 0.0 9.93923337957349e-17 6.0588707354406 -1.3895480839513284e-15 7.353898143365343e-17 1.5902773407317584e-15 0.0 0.0
50.21390962600708 0.5459191795438528 401.70789985656745 118.23135537715577 -78.9427012925973 117.09712275876578 -8.135627388094822 11.30344517294796 -9.408063148896142 4.130669470704375 -2.881703536995582 -8.849039867104752 -75.33570133555172 6.3611093629270335e-15 60.89826251273776 0.0 0.0 0.0 3.9210577533750013 7.3154354349193085 4.697014636387195 -17.171479025773287 -14.30206060796166 -22.411524089301274 106.79287896020303 0.0 -82.02305674902198 0.0 0.0 0.0 -0.014031112275460847 1.4540275988249625 -1.0444961983982526 0.0 0.0 0.0 0.0 0.0 0.0 0.0 0.0 0.0 0.0 0.0 0.0 -170.43674097110858 -11.862549599087421 175.8672065672209 48.10084325278832 -3.3455050538781312e-15 3.2345022004220536e-15 -180.0 73.61574977367368 180.0 -7.951386703658792e-16 9.93923337957349e-17 6.896728590703373e-34 -137.2437055662083 6.175089147858996 145.2594844490952 -119.62573753714014 -7.097730073281838e-15 4.492974690870719e-16 180.0 -79.18652759993822 180.0 3.975693351829396e-16 0.0 0.0 6.492797792147671 -2.38158797131683e-15 1.3508619796245419e-16 0.0 0.0 0.0
48.98314619064331 0.5328200412914157 401.5864042282105 119.524218568884 -78.4941348914599 118.71334593164929 -11.607532035990555 14.724871026474244 -7.561427652382071 8.98830840575013 -6.572105044545411 -9.553799190945387 -77.23764538564843 9.54166404439055e-15 56.0768952550242 0.0 3.1805546814635164e-15 0.0 4.023101657267852 7.473462868617471 4.032375872413146 -16.54799001597853 -14.296695010684235 -22.701152858306568 106.9778220632039 0.0 -81.94787839472616 0.0 0.0 -7.951386703658792e-16 -0.015177675541045394 1.5048651662653727 -1.1310584471862628 0.0 0.0 1.5902773407317588e-15 0.0 0.0 1.5902773407317588e-15 0.0 0.0 1.5902773407317588e-15 0.0 0.0 1.5902773407317588e-15 -169.20913532682724 -12.3557550786793 176.29060497621333 49.6211732630715 8.477487052788343e-16 1.360080695110546e-15 180.0 74.07680908102903 180.0 0.0 0.0 0.0 -136.6162275171007 4.914467839102316 140.561698573127 -120.47189627214381 -2.4456114588941082e-14 8.489917233428985e-15 -180.0 -72.1619984251407 -180.0 -1.5902773407317584e-15 -5.517382872562698e-33 3.975693351829396e-16 6.650296054107565 8.540335600485636e-15 -2.089152858682545e-15 1.5902773407317584e-15 0.0 0.0
47.76332409381867 0.5039935134351254 401.45929241180426 121.35706698348181 -78.24828164237843 120.82612371736518 -15.555735893635353 18.521390798675522 -4.404751865412974 11.049307610712432 -8.768966495639129 -11.261048209201016 -74.7789368849554 6.3611093629270335e-15 43.70687718124267 0.0 0.0 0.0 4.156918690709903 7.675443583079675 3.7210892423804243 -16.030785430441004 -14.20166021980518 -23.621791684150168 107.17801849067669 -6.3611093629270335e-15 -81.88164034264408 0.0 0.0 0.0 -0.015755431677954068 1.5323091905233532 -1.1910129765623962 -7.951386703658792e-16 0.0 0.0 -7.951386703658792e-16 0.0 0.0 -7.951386703658792e-16 0.0 0.0 -7.951386703658792e-16 0.0 0.0 -169.1759995032056 -11.593250525576938 175.7394499499501 49.325795973268846 7.406701147670357e-15 -3.4008927489478404e-15 180.0 75.36673196541818 -180.0 0.0 -3.1805546814635164e-15 0.0 -136.5702660439913 2.7052906678891655 137.0727106703788 -119.51311140875782 1.499555326186628e-14 4.612831994830864e-16 -180.0 -54.80946211017395 -180.0 -6.957463365701443e-16 -7.951386703658792e-16 5.963540027744094e-16 6.736773438738707 5.6613584933819016e-15 -1.9262415197129087e-15 0.0 0.0 0.0
46.53888165950775 0.46852045599371195 401.3127880096436 123.58585965248811 -78.16838239371617 123.31438715083705 -19.173959458758826 21.9243559275375 -0.8069306372705115 12.314168183964144 -10.698922504761013 -13.426751725850266 -68.14423485742856 -1.1131941385122309e-14 27.915404925108874 0.0 -1.5902773407317588e-15 0.0 4.256770722713053 7.883577926797166 3.530777473780639 -15.55080039197444 -14.09230228859687 -24.74132356277038 107.31864660856698 -1.5902773407317584e-14 -81.75039738195444 6.3611093629270335e-15 -3.1805546814635168e-15 -1.5902773407317582e-15 -0.014773293950984088 1.5332328806820263 -1.2425103855714938 0.0 4.969616689786746e-17 0.0 0.0 4.969616689786746e-17 0.0 0.0 4.969616689786746e-17 0.0 0.0 4.969616689786746e-17 0.0 -169.53097855995304 -10.389296274692295 174.86325247768434 48.18505201817295 7.258721008139332e-16 -3.2458465516901093e-16 180.0 76.98809767974903 -180.0 0.0 0.0 0.0 -136.16461386180592 0.08978131159142483 134.39526327709885 -116.78685861508907 -1.291868739094725e-14 3.281539734824625e-15 180.0 -48.28340777385798 180.0 5.466578358765419e-16 -4.267350815497712e-33 -8.945310041616142e-16 6.69998987167637 5.364309041012322e-15 -1.9070001272891363e-15 0.0 0.0 0.0
